<?xml version="1.0" standalone="no"?>
<!DOCTYPE svg PUBLIC "-//W3C//DTD SVG 20010904//EN"
 "http://www.w3.org/TR/2001/REC-SVG-20010904/DTD/svg10.dtd">
<svg version="1.0" xmlns="http://www.w3.org/2000/svg"
 width="600.000000pt" height="170.000000pt" viewBox="0 0 600.000000 170.000000"
 preserveAspectRatio="xMidYMid meet">

<g transform="translate(0.000000,170.000000) scale(0.100000,-0.100000)"
fill="#000000" stroke="none">
<path d="M275 1678 c-59 -31 -176 -154 -213 -224 -43 -82 -66 -176 -58 -237
10 -88 79 -175 155 -197 44 -12 49 6 17 68 -50 99 -43 241 19 370 36 76 91
145 107 136 8 -5 9 -165 3 -512 -6 -451 -9 -514 -26 -581 -11 -45 -16 -78 -10
-84 14 -14 77 20 112 61 43 48 68 112 80 201 6 44 9 268 7 526 l-3 450 -45 23
c-55 27 -93 27 -145 0z"/>
<path d="M1961 1691 c-9 -6 -15 -41 -19 -120 l-5 -111 -88 0 -88 0 -12 -39
c-19 -63 -12 -68 91 -77 l91 -7 -3 -201 -3 -202 -32 -64 c-35 -71 -101 -145
-90 -102 10 40 -18 121 -54 159 -19 19 -69 62 -111 95 -43 32 -78 61 -78 63 0
2 14 26 30 52 62 97 60 166 -4 178 -74 14 -143 -25 -177 -100 -24 -53 -24 -89
2 -135 l22 -38 -44 -78 c-101 -185 -157 -264 -186 -264 -30 0 -35 53 -30 286
7 264 8 258 -75 300 -45 23 -56 25 -88 15 -81 -24 -132 -91 -203 -271 l-46
-115 -3 180 -3 180 -25 12 c-14 6 -43 13 -65 15 l-40 3 -5 -290 c-6 -352 -1
-422 30 -447 22 -18 86 -24 105 -10 6 4 18 47 28 96 40 196 123 402 198 488
l38 43 -2 -260 c-2 -248 -1 -262 20 -307 25 -55 56 -73 106 -64 74 14 141 89
263 294 43 72 84 132 89 132 10 0 106 -95 134 -132 37 -50 29 -145 -14 -174
-30 -20 -65 -13 -117 22 -20 14 -46 24 -59 22 -23 -3 -53 -38 -64 -75 -23 -82
225 -125 350 -60 66 33 127 97 169 177 36 67 39 67 51 -5 23 -135 116 -224
211 -201 37 10 99 72 133 134 l28 53 17 -43 c26 -63 63 -108 110 -129 85 -39
159 -20 239 62 l57 58 15 -36 c22 -51 40 -70 91 -89 73 -28 148 2 194 78 l17
28 26 -39 c36 -55 103 -85 169 -78 58 7 127 44 157 84 l20 28 0 -40 c-1 -38
-6 -45 -95 -125 -203 -182 -256 -287 -203 -397 58 -120 249 -134 351 -26 65
69 97 203 98 416 l0 138 48 60 c65 79 136 202 193 329 l47 105 47 3 c68 5 76
0 65 -39 -5 -18 -15 -77 -21 -133 -25 -226 45 -385 179 -403 50 -7 113 24 145
72 l24 36 28 -37 c72 -94 196 -97 295 -7 27 24 52 53 56 65 5 17 10 12 33 -33
20 -40 36 -58 70 -76 77 -40 138 -25 191 49 27 37 30 39 30 17 1 -65 30 -89
110 -89 62 0 67 10 74 150 4 84 14 153 30 210 27 98 62 184 82 201 12 10 14 2
14 -47 0 -78 18 -264 32 -339 16 -81 51 -117 109 -113 25 2 45 9 50 18 4 8 12
62 19 119 12 112 47 247 85 326 l23 50 2 -145 c1 -153 17 -277 43 -327 23 -43
81 -91 121 -98 100 -19 174 59 191 203 10 84 -35 100 -55 20 -28 -111 -67
-152 -109 -114 -38 35 -46 90 -46 339 l-1 239 -24 19 c-14 10 -47 26 -75 34
-47 14 -51 14 -75 -3 -30 -23 -80 -148 -111 -282 -12 -52 -24 -102 -27 -110
-8 -19 -19 108 -21 228 -1 123 -16 151 -94 172 -73 21 -91 -1 -158 -195 l-37
-110 -1 136 c-1 96 -5 140 -13 147 -22 17 -111 32 -125 21 -8 -8 -13 -80 -15
-257 -3 -233 -4 -250 -26 -298 -13 -29 -37 -64 -53 -80 -25 -24 -32 -26 -54
-16 -46 21 -50 48 -52 332 0 146 -1 270 -2 277 -1 15 -56 33 -102 33 -33 0
-40 -4 -45 -26 l-7 -25 -31 30 c-100 96 -241 51 -314 -100 -42 -86 -53 -155
-51 -304 2 -117 0 -146 -15 -173 -37 -71 -93 -64 -129 16 -28 65 -27 210 2
350 27 122 25 149 -12 176 -28 21 -48 20 -194 -10 l-32 -6 -3 48 c-4 62 -34
83 -94 69 -75 -19 -107 -113 -63 -184 14 -24 19 -43 15 -65 -14 -71 -147 -336
-169 -336 -6 0 -7 96 -2 254 l7 254 -31 17 c-45 23 -112 17 -126 -12 -10 -20
-12 -20 -22 -3 -16 25 -93 60 -134 60 -152 -1 -252 -186 -248 -460 2 -137 -8
-175 -56 -206 -33 -22 -63 -10 -83 34 -14 31 -17 78 -18 297 -1 143 -2 265 -3
271 -2 17 -48 34 -96 34 -39 0 -45 -3 -51 -25 l-6 -25 -27 26 c-52 53 -121 67
-189 38 -104 -43 -162 -156 -183 -357 -13 -124 -37 -192 -87 -245 -24 -25 -38
-33 -59 -30 -51 6 -58 38 -61 283 -2 121 -1 257 3 303 l7 82 104 0 c114 0 124
5 124 68 0 28 -2 29 -61 36 -34 3 -86 6 -116 6 l-54 0 3 107 3 107 -55 17
c-63 20 -80 22 -99 10z m693 -512 c42 -33 60 -112 53 -244 -9 -198 -80 -314
-172 -279 -44 17 -81 168 -70 289 19 203 100 304 189 234z m718 1 c39 -30 51
-92 46 -232 -6 -142 -26 -214 -74 -264 -62 -66 -130 -31 -155 80 -18 81 -7
257 20 328 37 96 106 133 163 88z m1248 -8 c38 -39 54 -120 47 -247 -10 -191
-82 -303 -172 -269 -65 25 -91 278 -44 433 30 101 111 140 169 83z m-1183
-819 c-3 -72 -12 -151 -21 -180 -29 -91 -109 -132 -163 -81 -32 30 -31 97 3
166 23 46 166 222 181 222 3 0 3 -57 0 -127z"/>
</g>
</svg>
